<svg width="512" height="512" viewBox="0 0 512 512" fill="none" xmlns="http://www.w3.org/2000/svg">
    <path d="M315.259 256C315.259 288.728 288.728 315.259 256 315.259C223.272 315.259 196.741 288.728 196.741 256C196.741 223.272 223.272 196.741 256 196.741C288.728 196.741 315.259 223.272 315.259 256Z" fill="#F93904"/>
    <path d="M426.667 256C426.667 161.743 350.257 85.3333 256 85.3333C161.743 85.3333 85.3333 161.743 85.3333 256C85.3333 350.257 161.743 426.667 256 426.667V512C114.615 512 0 397.385 0 256C0 114.615 114.615 0 256 0C397.385 0 512 114.615 512 256C512 397.385 397.385 512 256 512V426.667C350.257 426.667 426.667 350.257 426.667 256Z" fill="white"/>
</svg>
