<svg width="255" height="100" viewBox="0 0 255 100" fill="none" xmlns="http://www.w3.org/2000/svg">
    <path d="M255 63.5417H249.773L237.939 45.5792V63.5417H232.712V37.3292H237.939L249.773 55.3292V37.3292H255V63.5417Z" fill="white"/>
    <path d="M214.376 63.8042C211.937 63.8042 209.697 63.2292 207.656 62.0792C205.616 60.9292 203.998 59.3417 202.803 57.3167C201.609 55.2667 201.011 52.9542 201.011 50.3792C201.011 47.8292 201.609 45.5417 202.803 43.5167C203.998 41.4667 205.616 39.8667 207.656 38.7167C209.697 37.5667 211.937 36.9917 214.376 36.9917C216.84 36.9917 219.08 37.5667 221.096 38.7167C223.137 39.8667 224.742 41.4667 225.912 43.5167C227.107 45.5417 227.704 47.8292 227.704 50.3792C227.704 52.9542 227.107 55.2667 225.912 57.3167C224.742 59.3417 223.137 60.9292 221.096 62.0792C219.055 63.2292 216.815 63.8042 214.376 63.8042ZM214.376 59.1167C215.944 59.1167 217.326 58.7667 218.52 58.0667C219.715 57.3417 220.648 56.3167 221.32 54.9917C221.992 53.6667 222.328 52.1292 222.328 50.3792C222.328 48.6292 221.992 47.1042 221.32 45.8042C220.648 44.4792 219.715 43.4667 218.52 42.7667C217.326 42.0667 215.944 41.7167 214.376 41.7167C212.808 41.7167 211.415 42.0667 210.195 42.7667C209 43.4667 208.067 44.4792 207.395 45.8042C206.723 47.1042 206.387 48.6292 206.387 50.3792C206.387 52.1292 206.723 53.6667 207.395 54.9917C208.067 56.3167 209 57.3417 210.195 58.0667C211.415 58.7667 212.808 59.1167 214.376 59.1167Z" fill="white"/>
    <path d="M187.408 63.8042C185.591 63.8042 183.949 63.4917 182.48 62.8667C181.037 62.2417 179.892 61.3417 179.046 60.1667C178.2 58.9917 177.764 57.6042 177.739 56.0042H183.339C183.414 57.0792 183.787 57.9292 184.459 58.5542C185.156 59.1792 186.102 59.4917 187.296 59.4917C188.516 59.4917 189.474 59.2042 190.171 58.6292C190.868 58.0292 191.216 57.2542 191.216 56.3042C191.216 55.5292 190.98 54.8917 190.507 54.3917C190.034 53.8917 189.437 53.5042 188.715 53.2292C188.018 52.9292 187.047 52.6042 185.803 52.2542C184.111 51.7542 182.729 51.2667 181.659 50.7917C180.614 50.2917 179.705 49.5542 178.934 48.5792C178.187 47.5792 177.814 46.2542 177.814 44.6042C177.814 43.0542 178.2 41.7042 178.971 40.5542C179.743 39.4042 180.825 38.5292 182.219 37.9292C183.613 37.3042 185.206 36.9917 186.998 36.9917C189.686 36.9917 191.863 37.6542 193.531 38.9792C195.223 40.2792 196.157 42.1042 196.331 44.4542H190.582C190.532 43.5542 190.146 42.8167 189.424 42.2417C188.727 41.6417 187.794 41.3417 186.624 41.3417C185.604 41.3417 184.783 41.6042 184.16 42.1292C183.563 42.6542 183.264 43.4167 183.264 44.4167C183.264 45.1167 183.488 45.7042 183.936 46.1792C184.409 46.6292 184.982 47.0042 185.654 47.3042C186.35 47.5792 187.321 47.9042 188.566 48.2792C190.258 48.7792 191.639 49.2792 192.709 49.7792C193.78 50.2792 194.701 51.0292 195.472 52.0292C196.244 53.0292 196.629 54.3417 196.629 55.9667C196.629 57.3667 196.269 58.6667 195.547 59.8667C194.825 61.0667 193.767 62.0292 192.373 62.7542C190.98 63.4542 189.325 63.8042 187.408 63.8042Z" fill="white"/>
    <path d="M160.075 63.8042C157.636 63.8042 155.396 63.2292 153.355 62.0792C151.314 60.9292 149.696 59.3417 148.502 57.3167C147.307 55.2667 146.71 52.9542 146.71 50.3792C146.71 47.8292 147.307 45.5417 148.502 43.5167C149.696 41.4667 151.314 39.8667 153.355 38.7167C155.396 37.5667 157.636 36.9917 160.075 36.9917C162.539 36.9917 164.779 37.5667 166.795 38.7167C168.836 39.8667 170.441 41.4667 171.611 43.5167C172.805 45.5417 173.403 47.8292 173.403 50.3792C173.403 52.9542 172.805 55.2667 171.611 57.3167C170.441 59.3417 168.836 60.9292 166.795 62.0792C164.754 63.2292 162.514 63.8042 160.075 63.8042ZM160.075 59.1167C161.643 59.1167 163.024 58.7667 164.219 58.0667C165.413 57.3417 166.347 56.3167 167.019 54.9917C167.691 53.6667 168.027 52.1292 168.027 50.3792C168.027 48.6292 167.691 47.1042 167.019 45.8042C166.347 44.4792 165.413 43.4667 164.219 42.7667C163.024 42.0667 161.643 41.7167 160.075 41.7167C158.507 41.7167 157.113 42.0667 155.894 42.7667C154.699 43.4667 153.766 44.4792 153.094 45.8042C152.422 47.1042 152.086 48.6292 152.086 50.3792C152.086 52.1292 152.422 53.6667 153.094 54.9917C153.766 56.3167 154.699 57.3417 155.894 58.0667C157.113 58.7667 158.507 59.1167 160.075 59.1167Z" fill="white"/>
    <path d="M137.654 50.1167C139.122 50.3917 140.329 51.1292 141.275 52.3292C142.221 53.5292 142.693 54.9042 142.693 56.4542C142.693 57.8542 142.345 59.0917 141.648 60.1667C140.976 61.2167 139.993 62.0417 138.699 62.6417C137.405 63.2417 135.874 63.5417 134.107 63.5417H122.87V37.3667H133.622C135.389 37.3667 136.907 37.6542 138.176 38.2292C139.47 38.8042 140.441 39.6042 141.088 40.6292C141.76 41.6542 142.096 42.8167 142.096 44.1167C142.096 45.6417 141.685 46.9167 140.864 47.9417C140.068 48.9667 138.998 49.6917 137.654 50.1167ZM128.096 48.1667H132.875C134.119 48.1667 135.078 47.8917 135.75 47.3417C136.422 46.7667 136.758 45.9542 136.758 44.9042C136.758 43.8542 136.422 43.0417 135.75 42.4667C135.078 41.8917 134.119 41.6042 132.875 41.6042H128.096V48.1667ZM133.36 59.2667C134.63 59.2667 135.613 58.9667 136.31 58.3667C137.031 57.7667 137.392 56.9167 137.392 55.8167C137.392 54.6917 137.019 53.8167 136.272 53.1917C135.526 52.5417 134.518 52.2167 133.248 52.2167H128.096V59.2667H133.36Z" fill="white"/>
    <path d="M61.1544 49.5238C61.1544 55.8356 56.0605 60.9524 49.7768 60.9524C43.4932 60.9524 38.3993 55.8356 38.3993 49.5238C38.3993 43.212 43.4932 38.0952 49.7768 38.0952C56.0605 38.0952 61.1544 43.212 61.1544 49.5238Z" fill="#F93904"/>
    <path d="M82.9614 50C82.9614 31.5905 68.1042 16.6667 49.7768 16.6667C31.4495 16.6667 16.5923 31.5905 16.5923 50C16.5923 68.4095 31.4495 83.3333 49.7768 83.3333V100C22.2858 100 0 77.6142 0 50C0 22.3858 22.2858 0 49.7768 0C77.2678 0 99.5537 22.3858 99.5537 50C99.5537 77.6142 77.2678 100 49.7768 100V83.3333C68.1042 83.3333 82.9614 68.4095 82.9614 50Z" fill="white"/>
</svg>
