<svg width="32" height="33" viewBox="0 0 32 33" fill="none" xmlns="http://www.w3.org/2000/svg">
    <g clip-path="url(#clip0_2021_9255)">
        <path d="M4.66933 11.1717C3.56503 11.1717 2.6698 12.0669 2.6698 13.1712V22.5023C2.6698 23.6066 3.56503 24.5019 4.66933 24.5019C5.77363 24.5019 6.66886 23.6066 6.66886 22.5023V13.1712C6.66886 12.0669 5.77363 11.1717 4.66933 11.1717ZM27.3306 11.1717C26.2263 11.1717 25.3311 12.0669 25.3311 13.1712V22.5023C25.3311 23.6066 26.2263 24.5019 27.3306 24.5019C28.4349 24.5019 29.3302 23.6066 29.3302 22.5023V13.1712C29.3302 12.0669 28.435 11.1717 27.3306 11.1717ZM23.3316 11.1717H8.66839C8.30029 11.1717 8.00186 11.4701 8.00186 11.8382V22.5023C8.00155 24.0862 9.11604 25.4515 10.6679 25.7683V30.5005C10.6679 31.6048 11.5632 32.5 12.6675 32.5C13.7718 32.5 14.667 31.6048 14.667 30.5005V25.8349H17.3331V30.5005C17.3331 31.6048 18.2283 32.5 19.3326 32.5C20.4369 32.5 21.3321 31.6048 21.3321 30.5005V25.7683C22.884 25.4515 23.9985 24.0862 23.9982 22.5023V11.8382C23.9981 11.4701 23.6997 11.1717 23.3316 11.1717ZM20.8455 3.26954L22.4705 1.64592C22.7352 1.39017 22.7425 0.968265 22.4868 0.703452C22.2311 0.438701 21.8092 0.431391 21.5444 0.687081C21.5388 0.692454 21.5334 0.697891 21.528 0.703452L19.6351 2.59638C18.4882 2.09817 17.2511 1.84107 16.0006 1.84107C14.7502 1.84107 13.5131 2.09817 12.3662 2.59638L10.4733 0.70214C10.2085 0.446387 9.78657 0.45376 9.53082 0.718511C9.28137 0.976825 9.28137 1.38629 9.53082 1.64454L11.1544 3.26948C10.1801 3.91416 9.3817 4.79137 8.8313 5.82189C8.2809 6.85242 7.99584 8.00381 8.00186 9.17209C8.00186 9.54019 8.30029 9.83862 8.66839 9.83862H23.3316C23.6997 9.83862 23.9982 9.54019 23.9982 9.17209C24.0042 8.00382 23.7191 6.85244 23.1687 5.82193C22.6183 4.79142 21.8199 3.91422 20.8455 3.26954Z" fill="#F93904"/>
        <path d="M12.6675 7.17266C13.0356 7.17266 13.334 6.87425 13.334 6.50613C13.334 6.13802 13.0356 5.8396 12.6675 5.8396C12.2994 5.8396 12.001 6.13802 12.001 6.50613C12.001 6.87425 12.2994 7.17266 12.6675 7.17266Z" fill="#0A0A0A"/>
        <path d="M19.3325 7.17266C19.7007 7.17266 19.9991 6.87425 19.9991 6.50613C19.9991 6.13802 19.7007 5.8396 19.3325 5.8396C18.9644 5.8396 18.666 6.13802 18.666 6.50613C18.666 6.87425 18.9644 7.17266 19.3325 7.17266Z" fill="#0A0A0A"/>
    </g>
    <defs>
        <clipPath id="clip0_2021_9255">
            <rect width="32" height="32" fill="white" transform="translate(0 0.5)"/>
        </clipPath>
    </defs>
</svg>
