<svg width="32" height="33" viewBox="0 0 32 33" fill="none" xmlns="http://www.w3.org/2000/svg">
    <g clip-path="url(#clip0_2021_9250)">
        <path d="M22.1582 0.5H22.3858C22.5685 2.75671 21.7071 4.44291 20.6603 5.66401C19.6331 6.87667 18.2265 8.0528 15.9515 7.87435C15.7998 5.64996 16.6625 4.08881 17.708 2.87053C18.6776 1.73515 20.4551 0.724828 22.1582 0.5ZM29.0449 23.9889V24.0521C28.4056 25.9884 27.4936 27.6479 26.3807 29.188C25.3648 30.5862 24.1198 32.4677 21.8968 32.4677C19.9759 32.4677 18.7 31.2325 16.7314 31.1988C14.6489 31.1651 13.5037 32.2316 11.5997 32.5H10.9505C9.55236 32.2977 8.42401 31.1904 7.60198 30.1927C5.17806 27.2447 3.30496 23.4366 2.95648 18.5635V17.1316C3.10403 13.644 4.79866 10.8083 7.05116 9.43409C8.23993 8.7034 9.87415 8.08091 11.6938 8.35913C12.4737 8.47998 13.2704 8.74696 13.9688 9.01113C14.6307 9.26547 15.4583 9.71653 16.2424 9.69264C16.7735 9.67718 17.3019 9.40036 17.8373 9.20504C19.4054 8.63876 20.9427 7.98957 22.969 8.29449C25.4041 8.66265 27.1325 9.74463 28.2004 11.414C26.1404 12.725 24.5118 14.7007 24.7901 18.0745C25.0374 21.1392 26.8191 22.9322 29.0449 23.9889Z" fill="#F93904"/>
    </g>
    <defs>
        <clipPath id="clip0_2021_9250">
            <rect width="32" height="32" fill="white" transform="translate(0 0.5)"/>
        </clipPath>
    </defs>
</svg>
