<svg width="32" height="32" viewBox="0 0 32 32" fill="none" xmlns="http://www.w3.org/2000/svg">
    <path d="M18.6481 21.938H13.3519C13.0503 21.9377 12.7612 21.8177 12.5479 21.6045C12.3347 21.3912 12.2147 21.1021 12.2144 20.8005V20.4212C8.60463 20.1402 5.03497 19.4764 1.56549 18.4411V27.1036C1.56633 27.8424 1.86021 28.5507 2.38265 29.0732C2.90508 29.5956 3.61341 29.8895 4.35224 29.8903H27.6477C28.3866 29.8895 29.0949 29.5956 29.6173 29.0732C30.1398 28.5507 30.4336 27.8424 30.4345 27.1036V18.4282C26.962 19.4506 23.3937 20.114 19.7857 20.4077V20.8005C19.7853 21.1021 19.6654 21.3912 19.4521 21.6045C19.2389 21.8177 18.9497 21.9377 18.6481 21.938Z" fill="#F93904"/>
    <path d="M31.3569 5.93668H23.7352V4.9593C23.7352 4.58511 23.6615 4.21458 23.5183 3.86887C23.3751 3.52316 23.1652 3.20904 22.9006 2.94444C22.636 2.67985 22.3219 2.46996 21.9762 2.32676C21.6305 2.18357 21.2599 2.10986 20.8858 2.10986H11.1143C10.7401 2.10986 10.3695 2.18355 10.0238 2.32674C9.67811 2.46993 9.364 2.67981 9.0994 2.9444C8.8348 3.20899 8.62491 3.52311 8.48172 3.86882C8.33852 4.21452 8.26481 4.58505 8.26481 4.95924V5.93668H0.643127C0.558665 5.93668 0.475031 5.95331 0.396999 5.98564C0.318967 6.01796 0.248067 6.06534 0.188347 6.12507C0.128626 6.18479 0.0812551 6.2557 0.0489387 6.33373C0.0166223 6.41177 -6.51294e-06 6.4954 1.69519e-06 6.57986V16.4827C-0.000279654 16.5935 0.0344672 16.7015 0.0992728 16.7913C0.164078 16.8811 0.255623 16.9481 0.360814 16.9827C0.762022 17.1148 1.16359 17.2415 1.5655 17.3629C5.03134 18.419 8.60208 19.0938 12.2143 19.3754V18.9421C12.2143 18.6404 12.3342 18.3511 12.5475 18.1378C12.7608 17.9245 13.0501 17.8046 13.3518 17.8046H18.6481C18.9497 17.8046 19.2391 17.9245 19.4524 18.1378C19.6657 18.3511 19.7856 18.6404 19.7856 18.9421V19.3625C23.3959 19.0679 26.9652 18.3938 30.4344 17.3514C30.8348 17.2321 31.2351 17.108 31.6355 16.9792C31.6834 16.9792 31.7308 16.9698 31.775 16.9515C31.8192 16.9332 31.8594 16.9064 31.8933 16.8725C31.9271 16.8387 31.954 16.7985 31.9723 16.7543C31.9906 16.7101 32 16.6627 32 16.6148V6.57986C32 6.4954 31.9834 6.41177 31.9511 6.33373C31.9187 6.2557 31.8714 6.18479 31.8117 6.12507C31.7519 6.06534 31.681 6.01796 31.603 5.98564C31.525 5.95331 31.4413 5.93668 31.3569 5.93668ZM9.3325 5.93668V4.9593C9.3325 4.48675 9.52022 4.03356 9.85436 3.69941C10.1885 3.36527 10.6417 3.17755 11.1143 3.17755H20.8858C21.3583 3.17755 21.8115 3.36527 22.1456 3.69941C22.4798 4.03356 22.6675 4.48675 22.6675 4.9593V5.93668H9.3325Z" fill="#F93904"/>
    <path d="M18.6482 18.8369H13.3519C13.2938 18.8369 13.2466 18.884 13.2466 18.9422V20.8004C13.2466 20.8585 13.2938 20.9057 13.3519 20.9057H18.6482C18.7063 20.9057 18.7535 20.8585 18.7535 20.8004V18.9422C18.7535 18.884 18.7063 18.8369 18.6482 18.8369Z" fill="#F93904"/>
</svg>
