<svg width="32" height="32" viewBox="0 0 32 32" fill="none" xmlns="http://www.w3.org/2000/svg">
    <path d="M22.6133 17.9065L19.9133 16.4398L16.6666 29.9998H24V20.2465C24.0001 19.7679 23.8714 19.2981 23.6274 18.8864C23.3834 18.4747 23.0332 18.1362 22.6133 17.9065ZM12 5.99984C12 5.34057 11.8045 4.6961 11.4382 4.14794C11.0719 3.59977 10.5513 3.17253 9.94226 2.92024C9.33317 2.66795 8.66295 2.60194 8.01635 2.73055C7.36974 2.85917 6.7758 3.17664 6.30963 3.64282C5.84345 4.10899 5.52598 4.70293 5.39736 5.34954C5.26875 5.99614 5.33476 6.66636 5.58705 7.27545C5.83934 7.88454 6.26658 8.40513 6.81475 8.7714C7.36291 9.13768 8.00738 9.33317 8.66665 9.33317C9.37237 9.32599 10.0571 9.09229 10.62 8.66651C10.9232 8.04561 11.3315 7.48177 11.8266 6.99984C11.9384 6.67814 11.9969 6.34038 12 5.99984Z" fill="#F93904"/>
    <path d="M16 15.9998C18.5773 15.9998 20.6666 13.9105 20.6666 11.3332C20.6666 8.75584 18.5773 6.6665 16 6.6665C13.4227 6.6665 11.3333 8.75584 11.3333 11.3332C11.3333 13.9105 13.4227 15.9998 16 15.9998Z" fill="#F93904"/>
    <path d="M26.6666 5.99984C26.6666 5.11578 26.3155 4.26794 25.6903 3.64281C25.0652 3.01769 24.2174 2.6665 23.3333 2.6665C22.4493 2.6665 21.6014 3.01769 20.9763 3.64281C20.3512 4.26794 20 5.11578 20 5.99984C20.0001 6.34933 20.0587 6.69634 20.1733 7.0265C20.666 7.50043 21.0741 8.05508 21.38 8.6665C21.9428 9.09229 22.6276 9.32599 23.3333 9.33317C23.7711 9.33317 24.2045 9.24695 24.6089 9.07944C25.0133 8.91192 25.3808 8.66639 25.6903 8.35686C25.9999 8.04733 26.2454 7.67987 26.4129 7.27545C26.5804 6.87103 26.6666 6.43758 26.6666 5.99984ZM9.99998 11.3332C10.0007 11.0361 10.0252 10.7396 10.0733 10.4465C9.6182 10.5903 9.14395 10.6645 8.66665 10.6665C7.71352 10.6676 6.78291 10.3768 5.99998 9.83317L3.73332 10.6665C3.22184 10.8576 2.78136 11.2011 2.47137 11.6506C2.16139 12.1 1.99685 12.6338 1.99998 13.1798V22.6665H6.66665V20.2465C6.66774 19.5285 6.86205 18.8241 7.2292 18.2071C7.59635 17.5901 8.1228 17.0833 8.75332 16.7398L11.4667 15.2532C10.5231 14.1649 10.0025 12.7735 9.99998 11.3332ZM28.2667 10.6665L26 9.83317C25.2171 10.3768 24.2864 10.6676 23.3333 10.6665C22.856 10.6645 22.3818 10.5903 21.9267 10.4465C21.9748 10.7396 21.9993 11.0361 22 11.3332C21.9975 12.7735 21.4769 14.1649 20.5333 15.2532L23.2467 16.7398C23.8772 17.0833 24.4036 17.5901 24.7708 18.2071C25.1379 18.8241 25.3322 19.5285 25.3333 20.2465V22.6665H30V13.1798C30.0031 12.6338 29.8386 12.1 29.5286 11.6506C29.2186 11.2011 28.7781 10.8576 28.2667 10.6665ZM16.6667 18.6665V24.3198L16 27.1198L15.3333 24.3198V18.6665C15.3333 18.4897 15.4036 18.3201 15.5286 18.1951C15.6536 18.0701 15.8232 17.9998 16 17.9998C16.1768 17.9998 16.3464 18.0701 16.4714 18.1951C16.5964 18.3201 16.6667 18.4897 16.6667 18.6665Z" fill="#F93904"/>
    <path d="M16.6667 18.6666V24.3199L16 27.1199L15.3333 24.3199V18.6666C15.3333 18.4898 15.4036 18.3202 15.5286 18.1952C15.6536 18.0702 15.8232 17.9999 16 17.9999C16.1768 17.9999 16.3464 18.0702 16.4714 18.1952C16.5964 18.3202 16.6667 18.4898 16.6667 18.6666ZM9.38667 17.9066C8.96682 18.1363 8.61654 18.4748 8.37256 18.8865C8.12857 19.2982 7.99989 19.768 8 20.2466V29.9999H15.3333L12.0867 16.4399L9.38667 17.9066Z" fill="#F93904"/>
</svg>
