<svg width="32" height="32" viewBox="0 0 32 32" fill="none" xmlns="http://www.w3.org/2000/svg">
    <g clip-path="url(#clip0_120_27008)">
        <path d="M18.9552 22.2049H13.0281C10.5836 22.2049 8.46338 20.4648 7.98642 18.0674L6.74039 11.8029L4.58832 11.2231L6.23161 19.4843V32.0001H8.10694V24.5323H17.0799V32.0001H18.9552V22.2049ZM23.158 22.5584C22.8137 22.3278 22.4087 22.2047 21.9943 22.205H20.8306V32.0002H23.1579V22.5584H23.158Z" fill="#F93904"/>
        <path d="M25.3107 22.1178L29.6161 28.6663L31.5608 27.3877L27.2553 20.8392C26.0873 19.0626 24.1205 18.0019 21.9942 18.0019H9.90094C10.3108 19.3673 11.5797 20.3293 13.0281 20.3293H21.9943C23.3346 20.3293 24.5744 20.9979 25.3107 22.1178ZM8.35248 10.2947L9.5125 16.1265H16.1706L14.7572 9.02077L20.4742 4.62161C21.1179 4.12634 20.9805 3.44453 20.9231 3.24743C20.8657 3.05027 20.6154 2.40147 19.8065 2.32933L14.7114 1.875C14.9403 3.07278 14.6945 4.28937 14.0162 5.30448C13.3314 6.32948 12.2883 7.02642 11.0793 7.2669C10.7823 7.32605 10.4803 7.35593 10.1774 7.3561C8.0328 7.35622 6.10989 5.84996 5.66019 3.67544L1.12688 6.04493C0.407067 6.42118 0.424195 7.11643 0.446574 7.32053C0.468953 7.52463 0.602977 8.20706 1.38718 8.41835L8.35248 10.2947Z" fill="#F93904"/>
        <path d="M7.49179 3.27514C7.78659 4.75678 9.23179 5.72239 10.7134 5.42771C11.4311 5.28494 12.0503 4.87124 12.4569 4.26276C12.8635 3.65427 13.0088 2.92389 12.866 2.2062C12.7233 1.48845 12.3095 0.86928 11.701 0.462645C11.2451 0.157966 10.7207 0 10.1846 0C10.0051 0 9.82439 0.0176906 9.64442 0.0535095C8.16278 0.348187 7.19705 1.79344 7.49179 3.27514Z" fill="#F93904"/>
    </g>
    <defs>
        <clipPath id="clip0_120_27008">
            <rect width="32" height="32" fill="white"/>
        </clipPath>
    </defs>
</svg>
