<svg width="24" height="24" viewBox="0 0 24 24" fill="none" xmlns="http://www.w3.org/2000/svg">
    <path d="M19.9309 4.72337C18.48 4.04701 16.9091 3.5561 15.2727 3.27246C15.244 3.27287 15.2165 3.28463 15.1964 3.30519C15 3.66519 14.7709 4.13428 14.6182 4.49428C12.8825 4.23263 11.1175 4.23263 9.38182 4.49428C9.22909 4.12337 9 3.66519 8.79273 3.30519C8.78182 3.28337 8.74909 3.27246 8.71636 3.27246C7.08 3.5561 5.52 4.04701 4.05818 4.72337C4.04727 4.72337 4.03636 4.73428 4.02545 4.74519C1.05818 9.18519 0.239997 13.5052 0.643634 17.7816C0.643634 17.8034 0.654543 17.8252 0.676361 17.8361C2.64 19.2761 4.52727 20.1488 6.39272 20.727C6.42545 20.7379 6.45818 20.727 6.46909 20.7052C6.90545 20.1052 7.29818 19.4725 7.63636 18.807C7.65818 18.7634 7.63636 18.7197 7.59273 18.7088C6.97091 18.4688 6.38182 18.1852 5.80363 17.8579C5.76 17.8361 5.76 17.7706 5.79273 17.7379C5.91272 17.6506 6.03272 17.5525 6.15272 17.4652C6.17454 17.4434 6.20727 17.4434 6.22909 17.4543C9.98182 19.167 14.0291 19.167 17.7382 17.4543C17.76 17.4434 17.7927 17.4434 17.8145 17.4652C17.9345 17.5634 18.0545 17.6506 18.1745 17.7488C18.2182 17.7816 18.2182 17.847 18.1636 17.8688C17.5964 18.207 16.9964 18.4797 16.3745 18.7197C16.3309 18.7306 16.32 18.7852 16.3309 18.8179C16.68 19.4834 17.0727 20.1161 17.4982 20.7161C17.5309 20.727 17.5636 20.7379 17.5964 20.727C19.4727 20.1488 21.36 19.2761 23.3236 17.8361C23.3455 17.8252 23.3564 17.8034 23.3564 17.7816C23.8364 12.8397 22.56 8.55246 19.9745 4.74519C19.9636 4.73428 19.9527 4.72337 19.9309 4.72337ZM8.20363 15.1743C7.08 15.1743 6.14182 14.1379 6.14182 12.8616C6.14182 11.5852 7.05818 10.5488 8.20363 10.5488C9.36 10.5488 10.2764 11.5961 10.2655 12.8616C10.2655 14.1379 9.34909 15.1743 8.20363 15.1743ZM15.8073 15.1743C14.6836 15.1743 13.7455 14.1379 13.7455 12.8616C13.7455 11.5852 14.6618 10.5488 15.8073 10.5488C16.9636 10.5488 17.88 11.5961 17.8691 12.8616C17.8691 14.1379 16.9636 15.1743 15.8073 15.1743Z" fill="white"/>
</svg>
