<svg width="64" height="65" viewBox="0 0 64 65" fill="none" xmlns="http://www.w3.org/2000/svg">
    <g style="mix-blend-mode:hard-light" clip-path="url(#clip0_2021_9280)">
        <path d="M13.7684 0.5C14.0895 0.5 14.3721 0.6 14.6289 0.75L26.7405 7.5125C27.0873 7.7 27.3185 7.95 27.4341 8.25C27.5497 8.525 27.5497 8.7875 27.5497 8.95V33.125L36.4375 28.1625V15.625C36.4375 15.3 36.5145 15 36.72 14.725C36.9127 14.4625 37.1696 14.275 37.4521 14.125L49.5252 7.375C49.7307 7.2625 49.9619 7.175 50.2316 7.175C50.5013 7.175 50.7453 7.2625 50.9508 7.375L63.2551 14.2625C63.5505 14.425 63.756 14.6375 63.8844 14.925C64 15.1875 64 15.45 64 15.65V29.05C64 29.3 63.9743 29.5875 63.8202 29.85C63.6661 30.125 63.4349 30.3125 63.1652 30.4625L63.1523 30.475L51.8499 36.7875V49.2875C51.8499 49.575 51.8114 49.8875 51.6444 50.1625C51.4774 50.4375 51.2205 50.625 50.9637 50.775H50.9508L26.8047 64.25C26.5222 64.4 26.2268 64.5 25.8928 64.5C25.5589 64.5 25.2635 64.3875 24.9809 64.25L24.9681 64.2375L0.9119 50.75L0.847682 50.7125C0.706402 50.625 0.513747 50.5 0.359623 50.35C0.115593 50.1125 0 49.825 0 49.45V8.7375C0 8.1375 0.38531 7.75 0.706402 7.575L12.9079 0.75C13.1648 0.6 13.4602 0.5 13.7813 0.5L13.7684 0.5ZM4.89344 8.8875L13.7556 13.875L22.6434 8.8875L13.7556 3.925L4.89344 8.8875ZM50.2316 20.5375L59.0937 15.575L50.2316 10.6125L41.3566 15.575L50.2316 20.5375ZM24.3002 11.625L15.4124 16.6V39.9L24.3002 34.9125V11.6125V11.625ZM12.1373 16.6125L3.2366 11.6375V48.4125L24.3002 60.1875V50.2625L13.0877 44.1L13.062 44.0875C12.895 43.9875 12.651 43.85 12.4712 43.625C12.2529 43.3625 12.1501 43.0375 12.1501 42.6625V16.6L12.1373 16.6125ZM39.7126 28.1625L48.6133 33.1125V23.3L39.7126 18.3125V28.1625ZM51.8499 33.1125L60.7506 28.15V18.3L51.8499 23.2875V33.1V33.1125ZM25.8928 47.5125L46.9308 35.8625L38.0686 30.875L17.0821 42.6375L25.8928 47.5V47.5125ZM27.5497 60.2L48.6133 48.425V38.575L27.5497 50.275V60.2Z" fill="#F93904"/>
    </g>
    <defs>
        <clipPath id="clip0_2021_9280">
            <rect width="64" height="64" fill="white" transform="translate(0 0.5)"/>
        </clipPath>
    </defs>
</svg>
