<svg width="32" height="33" viewBox="0 0 32 33" fill="none" xmlns="http://www.w3.org/2000/svg">
    <g clip-path="url(#clip0_2021_9246)">
        <path d="M32 16.5C32 20.7435 30.3143 24.8131 27.3137 27.8137C24.3131 30.8143 20.2435 32.5 16 32.5C13.8989 32.5 11.8183 32.0861 9.87706 31.2821C7.93586 30.478 6.17203 29.2994 4.68629 27.8137C1.68571 24.8131 0 20.7435 0 16.5C0 12.2565 1.68571 8.18687 4.68629 5.18629C7.68687 2.18571 11.7565 0.5 16 0.5C18.1012 0.5 20.1817 0.913852 22.1229 1.71793C24.0641 2.522 25.828 3.70055 27.3137 5.18629C28.7994 6.67203 29.978 8.43586 30.7821 10.3771C31.5861 12.3183 32 14.3989 32 16.5ZM19.744 9.684C20.672 10.212 21.84 9.892 22.4 8.98C22.896 8.068 22.592 6.9 21.664 6.356C20.752 5.828 19.568 6.1 19.04 7.06C18.512 7.972 18.832 9.156 19.744 9.684ZM15.808 22.1C14.96 22.1 14.16 21.924 13.456 21.588L12.112 23.988C13.232 24.5 14.48 24.852 15.808 24.852C16.592 24.852 17.328 24.74 18.048 24.548C18.176 23.764 18.624 23.06 19.36 22.644C20.096 22.212 20.928 22.18 21.664 22.452C23.088 21.06 24 19.156 24.144 17.028L21.408 16.996C21.2816 18.3928 20.6365 19.6916 19.6 20.6364C18.5634 21.5811 17.2105 22.1033 15.808 22.1ZM15.808 10.9C18.752 10.9 21.152 13.124 21.408 16.004L24.144 15.956C24.0122 13.9093 23.129 11.9834 21.664 10.548C20.928 10.82 20.08 10.772 19.36 10.356C18.624 9.94 18.176 9.22 18.048 8.452C17.328 8.26 16.592 8.148 15.808 8.148C14.48 8.148 13.232 8.452 12.112 9.012L13.456 11.412C14.16 11.076 14.96 10.9 15.808 10.9ZM10.192 16.5C10.192 14.596 11.136 12.916 12.576 11.908L11.2 9.54C9.48237 10.6776 8.24582 12.4099 7.728 14.404C8.336 14.9 8.72 15.652 8.72 16.5C8.72 17.348 8.336 18.1 7.728 18.596C8.24659 20.5855 9.48343 22.3125 11.2 23.444L12.576 21.092C11.136 20.084 10.192 18.404 10.192 16.5ZM19.744 23.316C18.832 23.844 18.512 25.012 19.04 25.94C19.568 26.852 20.752 27.172 21.664 26.644C22.592 26.1 22.896 24.932 22.4 24.02C21.84 23.092 20.672 22.788 19.744 23.316ZM6.016 14.58C4.96 14.58 4.096 15.444 4.096 16.5C4.096 17.556 4.96 18.42 6.016 18.42C7.088 18.42 7.936 17.556 7.936 16.5C7.936 15.444 7.088 14.58 6.016 14.58Z" fill="#F93904"/>
    </g>
    <defs>
        <clipPath id="clip0_2021_9246">
            <rect width="32" height="32" fill="white" transform="translate(0 0.5)"/>
        </clipPath>
    </defs>
</svg>
