<svg width="64" height="64" viewBox="0 0 64 64" fill="none" xmlns="http://www.w3.org/2000/svg">
    <path d="M42.9441 28.1386V19.3862C42.9468 8.6948 34.2437 0 23.5578 0C12.8638 0 4.16616 8.6948 4.16616 19.3862V28.1414H0V64H47.0992V28.1386H42.9441ZM11.4686 19.3862C11.4686 12.7264 16.8899 7.31342 23.5551 7.31342C30.2094 7.31342 35.6279 12.7292 35.6279 19.3862V28.1414H11.4686V19.3862ZM26.8863 54.1681H20.232L21.2289 44.3391C19.9986 43.5729 19.1692 42.2053 19.1692 40.6371C19.1692 38.2231 21.1301 36.2623 23.5578 36.2623C25.9718 36.2623 27.9272 38.2232 27.9272 40.6371C27.9272 42.2053 27.1114 43.5702 25.8701 44.3391L26.8863 54.1681Z" fill="#F93904"/>
</svg>
