<svg width="64" height="65" viewBox="0 0 64 65" fill="none" xmlns="http://www.w3.org/2000/svg">
    <g style="mix-blend-mode:hard-light">
        <path d="M5.49057 22.3387H14.5811C17.2493 22.3613 19.1827 23.1302 20.3815 24.6453C21.58 26.1601 21.9757 28.2293 21.5687 30.8526C21.4104 32.0511 21.0599 33.227 20.5171 34.3803C19.997 35.5336 19.2734 36.5738 18.3463 37.5009C17.2156 38.6766 16.0058 39.4229 14.7168 39.7397C13.4276 40.0562 12.0935 40.2145 10.7143 40.2145H6.64385L5.3549 46.6593H0.640015L5.49057 22.3387ZM9.45922 26.2056L7.42401 36.3816C7.55969 36.4042 7.69537 36.4155 7.83105 36.4155H8.30593C10.477 36.4381 12.2861 36.2233 13.7331 35.771C15.1804 35.2961 16.1528 33.6454 16.6503 30.8187C17.0573 28.4443 16.6503 27.0762 15.4291 26.7144C14.2306 26.3528 12.7268 26.1832 10.9178 26.2056C10.6466 26.2282 10.3866 26.2395 10.1376 26.2395H9.42529L9.45922 26.2056ZM26.9395 15.86H31.6205L30.2976 22.3387H34.5037C36.81 22.3841 38.5287 22.859 39.6595 23.7633C40.8128 24.6679 41.152 26.3865 40.6771 28.9192L38.4045 40.2145H33.6557L35.8266 29.428C36.0525 28.2973 35.9847 27.4945 35.6231 27.0197C35.2615 26.5448 34.4813 26.3073 33.2826 26.3073L29.5175 26.2734L26.736 40.2145H22.0551L26.9395 15.86ZM45.7037 22.3387H54.7943C57.4624 22.3613 59.3959 23.1302 60.5946 24.6453C61.7931 26.1601 62.1888 28.2293 61.7818 30.8526C61.6235 32.0511 61.273 33.227 60.7303 34.3803C60.2101 35.5336 59.4865 36.5738 58.5594 37.5009C57.4287 38.6766 56.2189 39.4229 54.9299 39.7397C53.6408 40.0562 52.3066 40.2145 50.9274 40.2145H46.857L45.568 46.6593H40.8531L45.7037 22.3387ZM49.6723 26.2056L47.6371 36.3816C47.7728 36.4042 47.9085 36.4155 48.0442 36.4155H48.5191C50.6901 36.4381 52.4992 36.2233 53.9463 35.771C55.3935 35.2961 56.3659 33.6454 56.8634 30.8187C57.2704 28.4443 56.8634 27.0762 55.6423 26.7144C54.4437 26.3528 52.94 26.1832 51.1309 26.2056C50.8595 26.2282 50.5995 26.2395 50.3507 26.2395H49.6384L49.6723 26.2056Z" fill="white"/>
    </g>
</svg>
