<svg width="32" height="32" viewBox="0 0 32 32" fill="none" xmlns="http://www.w3.org/2000/svg">
    <path d="M26.784 2.1333C22.208 2.1333 16.0725 5.27143 11.9509 10.6666H8.53331C6.06505 10.6666 4.65065 12.5098 3.67571 14.4576L2.36798 17.0666H8.53331L11.7333 20.2666L14.9333 23.4666V29.6298L17.5424 28.3242C19.4901 27.3514 21.3333 25.9349 21.3333 23.4666V20.049C26.7285 15.9274 29.8666 9.78983 29.8666 5.21597V2.1333H26.784ZM21.3333 8.5333C21.8991 8.5333 22.4417 8.75806 22.8418 9.15814C23.2419 9.55822 23.4666 10.1008 23.4666 10.6666C23.4666 11.2324 23.2419 11.7751 22.8418 12.1751C22.4417 12.5752 21.8991 12.8 21.3333 12.8C20.7675 12.8 20.2249 12.5752 19.8248 12.1751C19.4247 11.7751 19.2 11.2324 19.2 10.6666C19.2 10.1008 19.4247 9.55822 19.8248 9.15814C20.2249 8.75806 20.7675 8.5333 21.3333 8.5333ZM7.46665 21.3333L6.39998 22.4C4.85971 23.9402 4.26665 27.7333 4.26665 27.7333C4.26665 27.7333 7.88905 27.3109 9.59998 25.6L10.6666 24.5333L7.46665 21.3333Z" fill="#F93904"/>
</svg>
