<svg width="96" height="65" viewBox="0 0 96 65" fill="none" xmlns="http://www.w3.org/2000/svg">
    <path d="M50.9377 57.5C64.7104 57.5 75.8753 46.3071 75.8753 32.5C75.8753 18.6929 64.7104 7.5 50.9377 7.5C37.165 7.5 26 18.6929 26 32.5C26 46.3071 37.165 57.5 50.9377 57.5Z" fill="white"/>
    <path d="M61.8401 16.7508C59.3068 16.8394 57.0954 18.239 55.4495 20.1756C53.6269 22.2985 52.4144 24.8166 51.5408 27.3871C49.9779 26.103 48.7723 24.4407 46.2651 23.7158C44.3272 23.1581 42.2918 23.3885 40.4201 24.7866C39.5333 25.4506 38.9225 26.4543 38.632 27.3979C37.8798 29.8497 39.4227 32.032 40.1235 32.8154L41.6556 34.4615C41.9714 34.7842 42.7321 35.6262 42.3602 36.8332C41.9583 38.1458 40.3801 38.9955 38.7611 38.4948C38.0381 38.2737 36.9992 37.7337 37.2321 36.9734C37.3281 36.6622 37.5502 36.4296 37.6693 36.1608C37.7784 35.9297 37.8306 35.7564 37.8637 35.6547C38.1595 34.6864 37.7553 33.427 36.7211 33.1073C35.756 32.8107 34.7686 33.0457 34.386 34.2913C33.9519 35.7063 34.6273 38.2745 38.2455 39.3929C42.4847 40.6986 46.0707 38.3846 46.5794 35.3666C46.8998 33.4763 46.0484 32.072 44.4886 30.2657L43.2177 28.8568C42.4478 28.0857 42.1835 26.7716 42.9803 25.7618C43.6526 24.9098 44.61 24.5462 46.1783 24.9737C48.4673 25.5969 49.4877 27.1891 51.1904 28.4732C50.4873 30.7849 50.0278 33.105 49.6121 35.1856L49.3586 36.7369C48.1415 43.1366 47.2125 46.6507 44.7983 48.6681C44.3119 49.0147 43.6165 49.5339 42.5684 49.5701C42.019 49.587 41.8415 49.2081 41.8339 49.0432C41.8208 48.6565 42.1458 48.4794 42.3617 48.3053C42.6845 48.1289 43.1724 47.8362 43.1393 46.8987C43.104 45.791 42.1889 44.8305 40.8657 44.8744C39.8745 44.9083 38.3639 45.8434 38.4207 47.555C38.4799 49.3228 40.1235 50.6477 42.6015 50.5638C43.9262 50.5183 46.8844 49.9776 49.7996 46.5035C53.1928 42.5211 54.1417 37.9556 54.8555 34.614L55.6524 30.2025C56.0949 30.2557 56.5683 30.2911 57.0831 30.3034C61.3091 30.3928 63.4229 28.1982 63.4544 26.6021C63.4752 25.6362 62.8221 24.6856 61.9077 24.7072C61.253 24.7257 60.4309 25.1625 60.2334 26.0699C60.0406 26.9603 61.5781 27.7638 60.3763 28.5441C59.5227 29.0979 57.9921 29.4885 55.8368 29.1711L56.2286 26.9996C57.0285 22.8816 58.0151 17.8161 61.7579 17.6929C62.0306 17.679 63.0288 17.7052 63.0518 18.3669C63.0587 18.588 63.0042 18.6442 62.746 19.1503C62.4832 19.5447 62.3841 19.8805 62.3964 20.2665C62.4325 21.3179 63.2301 22.0089 64.3834 21.9673C65.9279 21.9172 66.372 20.4097 66.3466 19.6356C66.2844 17.8169 64.3719 16.6676 61.8401 16.7508Z" fill="#0A0A0A"/>
</svg>
