<svg width="64" height="64" viewBox="0 0 64 64" fill="none" xmlns="http://www.w3.org/2000/svg">
    <path d="M64 3H0C0 3 0 3 0 11.3654V52.8598V61H64C64 61 64 57.3415 64 52.8205V11.1795C64 6.65846 64 3 64 3ZM27.6484 33.5764L16.5228 44.7005C16.0766 45.1467 15.5114 45.3549 14.9462 45.3549C14.381 45.3549 13.8158 45.1467 13.3696 44.7005C12.9546 44.2807 12.7219 43.7143 12.7219 43.1241C12.7219 42.5339 12.9546 41.9675 13.3696 41.5477L22.9185 32L13.3696 22.4523C12.5069 21.5897 12.5069 20.1621 13.3696 19.2995C14.2322 18.4369 15.6601 18.4369 16.5228 19.2995L27.6484 30.4236C28.5111 31.2862 28.5111 32.7138 27.6484 33.5764ZM49.8699 45.3549H32.0213C30.8017 45.3549 29.7902 44.3436 29.7902 43.1241C29.7902 41.9046 30.8017 40.8933 32.0213 40.8933H49.8699C51.0895 40.8933 52.1009 41.9046 52.1009 43.1241C52.1009 44.3436 51.0895 45.3549 49.8699 45.3549Z" fill="#F93904"/>
</svg>
