<svg width="64" height="64" viewBox="0 0 64 64" fill="none" xmlns="http://www.w3.org/2000/svg">
    <g clip-path="url(#clip0_19_145)">
        <path fill-rule="evenodd" clip-rule="evenodd" d="M2.66667 19.2C4.61436 14.7544 7.5446 10.8082 11.2371 7.65817C14.9295 4.50814 19.2881 2.23625 23.9851 1.01333C21.2971 5.0432 19.1403 11.4667 17.9883 19.2H2.66667ZM40.0149 1.01333C44.7119 2.23625 49.0705 4.50814 52.7629 7.65817C56.4554 10.8082 59.3856 14.7544 61.3333 19.2H46.0117C44.8597 11.4667 42.7029 5.0432 40.0149 1.01333ZM62.848 23.4667C63.5989 26.1845 64 29.0453 64 32C64 34.9547 63.5989 37.8155 62.848 40.5333H46.5323C46.7947 37.8005 46.9333 34.9419 46.9333 32C46.9333 29.0581 46.7947 26.1995 46.5323 23.4667H62.848ZM61.3333 44.8C59.3856 49.2456 56.4554 53.1918 52.7629 56.3418C49.0705 59.4919 44.7119 61.7638 40.0149 62.9867C42.7029 58.9568 44.8597 52.5333 46.0117 44.8H61.3333ZM23.9851 62.9867C19.2881 61.7638 14.9295 59.4919 11.2371 56.3418C7.5446 53.1918 4.61436 49.2456 2.66667 44.8H17.9883C19.1403 52.5333 21.2971 58.9568 23.9851 62.9867ZM1.152 40.5333C0.401067 37.8155 0 34.9547 0 32C0 29.0453 0.401067 26.1845 1.152 23.4667H17.4677C17.2053 26.1995 17.0667 29.0581 17.0667 32C17.0667 34.9419 17.2053 37.8005 17.4677 40.5333H1.152ZM32 0C32.928 0 33.792 0.4608 34.6261 1.2032C35.7312 2.18453 36.7381 3.6288 37.6576 5.4272C39.4475 8.92587 40.8533 13.6789 41.7152 19.2H22.2848C23.1467 13.6789 24.5525 8.92587 26.3424 5.4272C27.2619 3.6288 28.2688 2.18453 29.3739 1.2032C30.208 0.4608 31.072 0 32 0ZM42.2549 40.5333H21.7451C21.4763 37.8112 21.3333 34.9504 21.3333 32C21.3333 29.0496 21.4763 26.1888 21.7451 23.4667H42.2549C42.5237 26.1888 42.6667 29.0496 42.6667 32C42.6667 34.9504 42.5237 37.8112 42.2549 40.5333ZM32 64C31.072 64 30.208 63.5392 29.3739 62.7968C28.2688 61.8155 27.2619 60.3712 26.3424 58.5728C24.5525 55.0741 23.1467 50.3211 22.2848 44.8H41.7152C40.8533 50.3211 39.4475 55.0741 37.6576 58.5728C36.7381 60.3712 35.7312 61.8155 34.6261 62.7968C33.792 63.5392 32.928 64 32 64Z" fill="#F93904"/>
    </g>
    <defs>
        <clipPath id="clip0_19_145">
            <rect width="64" height="64" fill="white"/>
        </clipPath>
    </defs>
</svg>
